<svg xmlns="http://www.w3.org/2000/svg" version="1.1" xmlns:xlink="http://www.w3.org/1999/xlink" xmlns:svgjs="http://svgjs.com/svgjs" width="400" height="408"><svg width="400" height="408" viewBox="0 0 400 408" fill="none" xmlns="http://www.w3.org/2000/svg">
<circle cx="200" cy="207" r="200" fill="white"></circle>
<path d="M199.93 7.00034C91.4572 7.00034 3.20233 93.3491 0.0127007 201.047C8.34895 189.063 21.6793 179.685 32.0361 177.042C46.6245 173.344 60.6919 177.296 75.8014 184.768C103.911 198.607 125.006 221.252 161.006 198.67C156.711 217.465 136.366 234.303 121.867 238.001C107.291 241.699 93.2236 237.734 78.1015 230.274C51.8982 217.376 31.7819 196.828 0 212.42C2.83382 320.436 91.2285 407.14 199.93 407.14C310.423 407.14 400 317.564 400 207.07C400 96.5769 310.423 7.00034 199.93 7.00034Z" fill="#D22027"></path>
<path d="M221.85 108.9H250.55C304.45 108.9 331.05 155.45 331.05 212.5C331.05 256.95 316.7 306.3 248.45 306.3H221.85V108.9ZM179.15 321H261.05C327.2 321 373.75 284.25 373.75 211.8C373.75 152.3 334.9 94.2 253 94.2H179.15V321Z" fill="white"></path>
</svg><style>@media (prefers-color-scheme: light) { :root { filter: none; } }
</style></svg>